<?xml version="1.0" encoding="UTF-8"?>
<svg xmlns="http://www.w3.org/2000/svg" version="1.1" viewBox="0 0 1080 1080">
  <defs>
    <style>
      .cls-1 {
        fill: #fff;
      }
    </style>
  </defs>
  <!-- Generator: Adobe Illustrator 28.7.1, SVG Export Plug-In . SVG Version: 1.2.0 Build 142)  -->
  <g>
    <g id="Capa_1">
      <g>
        <path class="cls-1" d="M1063.3,163c-22.7,47.9-63.8,70.1-103.6,86.1-66,26.4-132.7,51-198.5,77.7-12.8,5.2-19.8,3.3-28.8-5.5-27.5-26.7-59.6-46.9-95.8-59-109.9-36.7-208.3-16-293.9,62.4-7.2,6.6-11.9,7.4-21.4,3.4-45.6-19.1-92.2-35.8-137.7-55-41.4-17.4-82.7-35.2-122.3-56.3-22.9-12.2-38.6-33.9-48.4-59.6-1.3,9-.9,17,1.5,24.4,9.5,29.7,29.3,52.2,53,71.2,49,39.3,105.1,66.4,162.3,91.2,23.2,10.1,46.5,20,70.1,30.1-96.4,164.8-11.6,326.5,64.9,372.9q25.2-33.5-2.2-62.2c-1.9-2-4-3.9-5.6-6.1-57.9-76.5-72-160.2-32-247.9,39.3-86.2,109.4-132.7,204.4-138.5,130.5-7.9,244.2,98.5,246.8,229.3,1.3,69.4-23.1,128.1-72.3,176.9-4.3,4.2-8.5,13-6.9,17.7,3.7,11.3,10.9,21.4,17.7,33.6,50.7-40.3,83.1-89.8,98.4-148.9,20.4-78.9,8.9-154.4-34.8-226.4,15.9-7.1,29.7-13.9,44-19.5,60.4-23.4,118.3-51.5,171.5-88.6,25.2-17.6,48.5-37.9,62.5-66,5.6-11.3,8.1-24.2,12-36.4-1.5-.4-3.1-.7-4.6-1.1Z"/>
        <path class="cls-1" d="M625.3,601.5c-10-55-1-105.5,37.7-147.7,14.5-15.8,31.6-29.2,49-45-8.2-9.6-15.7-20.1-25-28.5-3.4-3.1-13.1-4.2-16.6-1.6-76,55.1-111.4,126.9-96.7,224,9.3,61.4,35.2,116.5,63.6,171,27.5,52.9.9,96.6-58.7,98-26.1.6-52.3.2-78.5-.1-60.2-.8-85.6-47.6-58-101.4,20.2-39.4,39.3-80.1,52.5-122.2,29.8-94.5,15.6-180.3-61.2-249.8-34.3-31-40.5-30.1-66.4,13.1,5.5,4.3,10.1,8.2,15,11.7,64.9,46.3,85.3,109.3,69.9,185.9-10.1,50.2-30.7,96.3-55.9,140.3-34.5,60.1-17.3,156.3,77.5,169.2,41.9,5.7,85.6,5.5,127.7.8,84-9.5,124.1-96.1,81.8-169.5-26.7-46.4-48.1-95.1-57.8-148.3Z"/>
      </g>
    </g>
  </g>
</svg>