<?xml version="1.0" encoding="UTF-8"?>
<svg xmlns="http://www.w3.org/2000/svg" version="1.1" viewBox="0 0 1080 474.1">
  <defs>
    <style>
      .cls-1 {
        fill: #fff;
      }

      .cls-2 {
        display: none;
      }
    </style>
  </defs>
  <!-- Generator: Adobe Illustrator 28.7.1, SVG Export Plug-In . SVG Version: 1.2.0 Build 142)  -->
  <g>
    <g id="Capa_2" class="cls-2">
      <rect x="-25.9" y="-338.8" width="1121.8" height="1121.8"/>
    </g>
    <g id="Capa_1">
      <g>
        <path class="cls-1" d="M588.7,187.2c-1.8-3.4-3.8-6.1-4.8-9.2-.4-1.3.7-3.7,1.9-4.9,13.5-13.4,20.2-29.4,19.8-48.5-.7-35.8-31.8-65-67.6-62.8-26,1.6-45.2,14.3-56,37.9-11,24-7.1,46.9,8.8,67.9.5.6,1,1.1,1.5,1.7q7.5,7.9.6,17c-21-12.7-44.2-57-17.8-102.2-6.5-2.8-12.8-5.5-19.2-8.2-15.7-6.8-31-14.2-44.5-25-6.5-5.2-11.9-11.4-14.5-19.5-.6-2-.8-4.2-.4-6.7,2.7,7,7,13,13.3,16.3,10.8,5.8,22.2,10.6,33.5,15.4,12.5,5.3,25.2,9.8,37.7,15.1,2.6,1.1,3.9.9,5.9-.9,23.4-21.5,50.4-27.2,80.5-17.1,9.9,3.3,18.7,8.9,26.2,16.2,2.5,2.4,4.4,2.9,7.9,1.5,18-7.3,36.3-14.1,54.4-21.3,10.9-4.4,22.2-10.5,28.4-23.6.4.1.8.2,1.3.3-1.1,3.3-1.7,6.9-3.3,10-3.8,7.7-10.2,13.3-17.1,18.1-14.6,10.2-30.4,17.9-47,24.3-3.9,1.5-7.7,3.4-12.1,5.3,12,19.7,15.1,40.4,9.5,62-4.2,16.2-13,29.7-26.9,40.8Z"/>
        <path class="cls-1" d="M493.6,94.5c7.1-11.8,8.8-12.1,18.2-3.6,21,19,24.9,42.5,16.8,68.4-3.6,11.5-8.9,22.7-14.4,33.5-7.6,14.7-.6,27.6,15.9,27.8,7.2,0,14.3.2,21.5,0,16.3-.4,23.6-12.4,16.1-26.8-7.8-14.9-14.9-30-17.4-46.8-4-26.6,5.7-46.3,26.5-61.3,1-.7,3.6-.4,4.5.4,2.5,2.3,4.6,5.2,6.8,7.8-4.7,4.3-9.4,8-13.4,12.3-10.6,11.6-13.1,25.4-10.3,40.5,2.7,14.6,8.5,27.9,15.8,40.6,11.6,20.1.6,43.8-22.4,46.4-11.5,1.3-23.5,1.3-35-.2-26-3.5-30.7-29.9-21.2-46.3,6.9-12,12.6-24.7,15.3-38.4,4.2-21-1.4-38.2-19.2-50.9-1.3-1-2.6-2-4.1-3.2Z"/>
        <path class="cls-1" d="M572.5,361.8c-6.9,0-13.9.1-20.8-.1-1.3,0-2.8-1.6-3.7-2.9-8.2-11-16.7-21.8-24.3-33.2-3.9-5.8-8.2-8.6-15.4-6.3v41.1h12c0,.4,0,.7,0,1.1h-33.2c0-.3,0-.6-.1-.8,3.1-.2,6.2-.3,9.6-.5v-80.8c-3.3-.2-6.5-.3-9.9-.5.4-.8.6-1.2.7-1.2,15.8.2,31.7,0,47.5.9,5,.3,10.5,2.6,14.8,5.4,10.3,6.7,10.4,21.4,0,28.1-5.1,3.3-11.3,4.8-17.3,7.3.3.5,1,1.6,1.7,2.7,8.3,11.1,16.8,22.1,24.9,33.4,2.7,3.8,5.6,5.7,10.2,5,1.1-.2,2.3.1,3.5.2,0,.4,0,.9,0,1.3ZM508.1,279.5v37.1c7.3,0,14.3.6,21.2-.1,8.8-.9,13.1-6.1,13.8-14.9.2-2.3.2-4.6,0-6.8-.7-9-5.2-14.2-14.2-15-6.8-.6-13.7-.1-20.8-.1Z"/>
        <path class="cls-1" d="M113.4,279h-10.1c.2-.8.2-1.2.3-1.2,15.4.2,30.9-.8,46,1.1,15.1,1.8,26.7,10.7,33.4,24.9,7.1,15.2,3.4,33-9.2,44.8-6.7,6.3-14.6,11.2-23.7,12-15.5,1.3-31.2,1.3-46.8,1.8,0-.7-.1-1.3-.2-2,1.6,0,3.2,0,4.8,0s3.3,0,5.4,0v-81.3ZM125.3,279.6v80.5c6.4,0,12.5.4,18.6,0,12.1-.9,20.6-7.3,25-18.5,5.5-14.3,5.6-28.9.2-43.3-4-10.5-11.9-17-23-18.5-6.7-.8-13.6-.2-20.7-.2Z"/>
        <path class="cls-1" d="M263.7,363.6c-24.7,0-45.1-19.8-45.1-43.9,0-24,20.5-44.1,45-44.1,24.7,0,45.1,19.9,45.2,44,0,24-20.4,44-45,44ZM295.7,328.6c-.5-14.7-2.9-27.4-10.5-38.5-7-10.2-16.7-14.4-28.9-12.3-12.4,2.1-20.4,9.6-23.1,21.7-3.9,17.4-1,34,8.5,49.2,6.8,11,17.2,15.2,29.9,12.8,12.6-2.4,20-10.4,22.8-22.7.9-3.8,1.1-7.8,1.4-10.2Z"/>
        <path class="cls-1" d="M881.5,346v15.5h-63.5c0-.3,0-.6-.1-.9,3.2-.2,6.5-.3,10.2-.5v-81.1h-10c0-.3,0-.7,0-1h63.4v15.4c-.3.1-.6.3-.9.4-2.5-4-4.9-8.1-7.5-12.1-.7-1.1-2.1-2.5-3.3-2.5-9.9-.2-19.7-.1-29.9-.1v37.4h28.5c0,.4,0,.9,0,1.3h-28.4v42.4c5.7,0,11.5-.6,17.1.1,10.4,1.5,17.9-1.4,21.6-11.9.4-1.1,1.3-1.9,2-2.9.3.1.6.2.8.4Z"/>
        <path class="cls-1" d="M605.8,360.3h10.1v-81.4h-10.2c0-.4,0-.7,0-1.1h63.3v15.5c-.3.2-.5.4-.8.5-1.7-2.8-3.9-5.5-5.1-8.5-2.2-5.3-5.9-6.8-11.4-6.4-7.9.5-15.8.1-24.1.1v37.6h28.4c0,.4,0,.9,0,1.3h-28.5v42.3c10,0,20,0,30-.1,1.1,0,2.5-1.5,3.2-2.7,2.6-3.9,4.9-7.9,8.2-11.6v15.6h-63.3c0-.4,0-.7,0-1.1Z"/>
        <path class="cls-1" d="M394.7,281.8c1-1.3,2.2-2.7,3.8-4.8v17c-.9-1.2-1.5-1.9-2.1-2.7-8.6-12.8-28.8-17.9-41.9-9.8-3.6,2.2-7,6.1-8.6,10-2.5,6,.8,11.6,7.8,14.3,8.8,3.4,17.9,6.1,26.8,9.2,3.2,1.1,6.4,2.1,9.4,3.5,9.5,4.4,13,10.7,12.3,21.7-.6,11.2-5.4,18.3-14.8,21.4-10,3.3-20.1,2.9-30.1-.4-4.3-1.4-8.5-3.3-13-5.1-.9,1.7-1.9,3.5-3.5,6.5v-17.6c10.5,15.9,25.2,18.5,41.8,15.5,3.2-.6,6.5-2,9.1-3.9,7.9-5.6,7.9-16.9,0-22.5-3.3-2.3-7.2-4-11-5.5-7.7-3-15.5-5.4-23.1-8.5-11.9-4.8-16.7-13.7-14.8-26.1.9-5.8,4.1-10.1,8.9-13.2,8.5-5.5,17.7-6.3,27.2-3.9,5.1,1.3,10.2,3.1,15.7,4.8Z"/>
        <path class="cls-1" d="M968.9,282.1c1.3-1.6,2.4-3,4.1-5.2v16.8c-.7-.8-1.4-1.5-1.9-2.2-8.3-12.3-26.9-17.6-40.3-11.1-2.6,1.2-5,3-7,5-6.8,6.9-5.1,16.4,3.8,20.1,8,3.3,16.4,5.7,24.6,8.5,4.2,1.4,8.4,2.7,12.4,4.6,9.2,4.3,12.9,10.7,12.3,20.8-.7,11.9-5.4,19.1-15,22.2-10.2,3.3-20.4,2.9-30.5-.6-4.2-1.4-8.2-3.2-12.5-4.9-.9,1.8-1.9,3.5-2.8,5.3-.2,0-.5-.1-.7-.2v-15.7c.7.6,1.3,1,1.7,1.5,9.5,14,32.2,19.4,47.1,11.2,10.6-5.8,11.2-19.2.6-25-7.7-4.2-16.3-6.7-24.5-10-4-1.6-8.1-2.8-11.8-4.9-7.9-4.3-11.9-11.1-11.6-20.2.3-9.2,4.8-15.4,13-19.3,10-4.8,19.9-3.3,29.8-.3,3,.9,6,2.2,9.3,3.5Z"/>
        <path class="cls-1" d="M728,278.8c-1.7.2-3.5.4-6.1.6,8.4,13.7,16.7,27.1,25.3,41.1,9.1-13.9,18-27.3,27.1-41.2-3.3-.2-5.8-.4-8.4-.6,0-.3,0-.6,0-1h20.1c-1.6.7-2.2,1.3-2.7,1.2-5.6-1.1-8.4,2-11.1,6.3-6.7,10.7-14,21.1-20.8,31.7-1.2,1.9-2,4.5-2,6.7-.2,12,0,24,0,36.6h10v1h-31.3c0-.3,0-.6,0-.8,3.2-.1,6.3-.3,10.2-.5,0-5.1-.5-10.1,0-15,1.9-15.2-2.1-28.3-11.6-40.2-4.1-5.1-7-11-10.6-16.5-3.1-4.7-4.7-11.4-13.3-9.1.2-.5.5-.9.7-1.4h24.6c0,.3,0,.6.1.9Z"/>
        <path class="cls-1" d="M698.7,442.7c-2.3-1.3-4.2-2-5.4-3.3-4-4.5-7.7-9.3-12.4-15v17.1c-1.8,0-3.1.2-4.6.3v-27c2.3,1.4,4.3,2,5.5,3.3,4,4.5,7.7,9.3,12.3,14.9v-16.9c1.7-.2,3-.3,4.6-.4v27Z"/>
        <path class="cls-1" d="M304.7,433.7c1.6,2.5,3.3,5,5,7.6-3.5,1.6-5.5,0-6.9-2.6-2-4-5-5.4-9.8-3.9-.1,2-.3,4.2-.5,6.8-1.3,0-2.6.2-4.3.3v-26.1c3.5,0,6.8,0,10.1,0,4.6.1,8.9,1.1,10.8,6,1.7,4.3.4,7.6-4.5,11.8ZM293,431.7c4.4-1.7,8-2.7,11.2-4.5.6-.4.3-4.8-.6-5.1-3.2-1.4-6.8-1.9-10.7-2.8v12.4Z"/>
        <path class="cls-1" d="M597.8,441.3c-3.9,1.5-5.8-.3-7.1-3-2-4.3-5.4-4.7-9.6-3.8-.2,2.3-.3,4.6-.5,7h-4.3v-25.8c3.5,0,7,0,10.4,0,5.8.1,9.3,2.2,10.6,6.2,1.5,4.9-.2,8.6-4.7,11.4,1.7,2.6,3.3,5.1,5.2,7.9ZM581.1,431.7c4.4-1.7,8-2.7,11.2-4.5.6-.4.2-4.8-.6-5.2-3.2-1.4-6.8-1.8-10.6-2.7v12.3Z"/>
        <path class="cls-1" d="M342.9,420v6.5h11.7c1.5,4.8-1.7,3.9-3.9,3.9-2.4,0-4.8,0-7.6,0v7.2h13.6c.3.4.7.8,1,1.3-1,1-1.9,2.8-3,2.8-5.4.3-10.9.1-16.7.1v-25.9h17.9c.8,3.7.8,3.8-2.2,3.9-3.5.1-7,0-10.9,0Z"/>
        <path class="cls-1" d="M778.6,420v6.6c3,0,5.9-.2,8.7,0,1.3.1,2.4,1.3,3.6,1.9-1.3.6-2.5,1.6-3.8,1.8-2.7.3-5.4,0-8.4,0v7.3c3.6,0,7.3.1,11.1,0,2.9-.1,4,.9,2.8,3.9h-18.7v-25.5h18.1c1.1,2.7.3,3.9-2.7,3.8-3.5,0-6.9,0-10.7,0Z"/>
        <path class="cls-1" d="M541.7,416h4.2c.2.5.6.9.6,1.3,0,4.7.3,9.5,0,14.2-.4,7.2-4.5,10.9-11.5,10.8-6.9,0-10.9-4-11.1-11.2-.1-4.8,0-9.7,0-14.9,1.6-.1,2.9-.2,4.1-.3.3.7.6,1.1.6,1.5,0,4.6,0,9.1.1,13.7.2,4.8,2.4,7,6.7,6.9,4.1,0,6-2.1,6.2-6.8.2-4.8,0-9.7,0-15.1Z"/>
        <path class="cls-1" d="M497.2,442.6c-1.5-1.1-3.7-2-4.4-3.5-1.2-2.7-2.8-3.6-5.6-3.3-2,.2-4-.3-5.9.2-1.6.4-3.6,1.5-4.2,2.8-1.3,2.7-2.8,3.7-6.2,2.5,3.7-8.1,7.2-16.3,11.1-24.3,1.1-2.3,4.9-1.8,6.1.8,3.6,7.7,7,15.4,10.5,23.1-.4.5-.8,1-1.2,1.6ZM479.9,431.9h9.5c-1.6-3.7-3.1-7-4.9-11-1.7,4.1-3.1,7.3-4.7,11Z"/>
        <path class="cls-1" d="M648.3,442.6c-1.5-1.2-3.6-2-4.3-3.6-1.2-2.5-2.5-3.5-5.2-3.2-2,.2-4,.2-5.9,0-2.6-.3-4,.6-4.7,3.1-.8,3-2.9,3.5-6,2.4,3.6-8,7.1-15.9,10.8-23.7,1.3-2.8,5-2.7,6.3.1,3.6,7.7,7,15.4,10.5,23.2-.5.5-.9,1.1-1.4,1.6ZM636,420.7c-1.7,4.3-3.1,7.6-4.5,11.1h9.3c-1.6-3.6-2.9-6.8-4.7-11.1Z"/>
        <path class="cls-1" d="M383.7,436.2c4.2.8,7.4,1.8,10.7,1.8,1.5,0,3-1.9,4.4-3-1.2-1.2-2.2-2.7-3.7-3.4-2.2-1-5-.9-6.9-2.2-2-1.4-4.5-4-4.5-6,0-2.3,2.3-6,4.3-6.5,3.9-1,8.3-.4,12.4,0,.6,0,1.1,2.3,1.9,4.2-4-.7-6.6-1.6-9.2-1.4-1.6,0-3.1,1.8-4.6,2.8,1.2,1.3,2.2,3,3.7,3.8,2.1,1.1,5,1,6.9,2.3,1.9,1.3,4.2,3.7,4.3,5.6,0,2.2-1.8,5.4-3.7,6.5-4.8,2.9-10,2-14.8-.5-.8-.4-.8-2.6-1.1-3.9Z"/>
        <path class="cls-1" d="M747.4,415.8c-.3,6.8-6,2.6-8.7,5.3,0,5.1-.1,11,0,16.9.1,3.3-1,4.5-4.9,3.3v-21.1c-3.1-.2-5.7-.3-8.2-.5-.3-.4-.6-.7-.8-1.1.9-1,1.8-2.7,2.8-2.7,6.4-.2,12.7-.1,19.8-.1Z"/>
        <path class="cls-1" d="M436.1,420.2c-3.3-.2-5.9-.3-8.4-.5-.3-.4-.6-.7-.9-1.1.9-1,1.8-2.7,2.8-2.8,6.4-.2,12.7-.1,19-.1q.5,3.4-7.8,4.7v21.1c-1.7,0-3,.2-4.8.3v-21.6Z"/>
      </g>
    </g>
  </g>
</svg>